<svg width="211" height="140" viewBox="0 0 211 140" fill="none" xmlns="http://www.w3.org/2000/svg">
<g id="easy-learn-logo 1">
<rect width="211" height="157" transform="translate(0 -17.6)" fill="#F3F4F6"/>
<g id="Group">
<path id="Vector" fill-rule="evenodd" clip-rule="evenodd" d="M102.599 8.51438C120.176 8.1044 134.682 14.4542 146.118 27.5637C157.224 41.5821 160.6 57.2821 156.246 74.6637C152.929 86.1541 146.511 95.5217 136.992 102.767C125.186 111.227 112.035 114.506 97.5348 112.605C83.7542 110.326 72.5185 103.819 63.8275 93.085C54.7388 81.092 51.2222 67.6249 53.2775 52.6837C56.1394 36.8437 64.3859 24.65 78.0173 16.1027C85.599 11.6008 93.7928 9.07141 102.599 8.51438Z" fill="#167EEC"/>
</g>
<g id="Group_2">
<path id="Vector_2" fill-rule="evenodd" clip-rule="evenodd" d="M103.232 9.45638C121.595 9.23512 136.312 16.3175 147.383 30.7037C156.147 43.1256 159.032 56.802 156.034 71.733C152.706 85.7381 144.988 96.6406 132.877 104.441C120.68 111.738 107.598 113.901 93.6312 110.931C77.5189 106.839 65.7907 97.4015 58.447 82.6184C52.8045 70.0864 52.1012 57.2822 56.337 44.2057C61.2336 30.8353 70.0779 20.9443 82.8702 14.5327C89.3222 11.4758 96.1093 9.78378 103.232 9.45638Z" fill="#F9FCFE"/>
</g>
<g id="Group_3">
<path id="Vector_3" fill-rule="evenodd" clip-rule="evenodd" d="M102.599 10.6077C118.658 10.161 132.144 15.7084 143.058 27.2497C153.312 38.9754 157.462 52.582 155.507 68.0697C153.271 81.7071 146.678 92.7145 135.726 101.092C124.335 109.287 111.64 112.427 97.6403 110.512C81.9672 107.743 69.9929 99.6654 61.7175 86.2817C54.9206 74.3248 53.1271 61.6601 56.337 48.2877C59.9892 35.2857 67.5325 25.1853 78.9668 17.9867C86.2471 13.6193 94.1245 11.1597 102.599 10.6077Z" fill="#007BEC"/>
</g>
<g id="Group_4">
<path id="Vector_4" fill-rule="evenodd" clip-rule="evenodd" d="M104.076 47.5551C104.479 47.566 104.866 47.6532 105.236 47.8167C108.612 49.0727 111.988 50.3287 115.364 51.5847C115.487 53.1643 115.504 54.7518 115.417 56.3471C115.206 56.6262 114.995 56.6262 114.784 56.3471C114.765 54.9262 114.712 53.5132 114.626 52.1081C111.206 50.8437 107.796 49.5703 104.392 48.2877C101.177 49.4613 97.9767 50.665 94.7918 51.8987C97.9703 53.2314 101.17 54.5048 104.392 55.7191C107.259 54.6721 110.107 53.5731 112.938 52.4221C113.558 52.1325 113.804 52.3069 113.676 52.9454C113.024 53.2075 112.373 53.4691 111.725 53.7304C111.69 55.6842 111.654 57.6379 111.619 59.5917C111.507 59.9122 111.314 60.1739 111.039 60.3767C109.565 61.0392 108.017 61.4229 106.397 61.5281C104.237 61.6682 102.092 61.5635 99.9613 61.2141C99.1828 61.038 98.4443 60.759 97.7458 60.3767C97.5127 60.1807 97.3193 59.9539 97.1655 59.6964C97.1479 57.6719 97.0951 55.6484 97.0073 53.6257C95.7581 53.1724 94.5449 52.6491 93.3675 52.0557C93.2971 51.9162 93.2971 51.7766 93.3675 51.6371C96.9415 50.2636 100.511 48.903 104.076 47.5551Z" fill="#EAEFF5"/>
</g>
<g id="Group_5">
<path id="Vector_5" fill-rule="evenodd" clip-rule="evenodd" d="M110.722 54.149C110.828 55.9101 110.863 57.6894 110.828 59.487C110.608 59.754 110.328 59.9459 109.984 60.0627C106.748 60.9398 103.478 61.0793 100.172 60.4814C99.3678 60.3671 98.6469 60.0705 98.0095 59.5917C97.9216 57.7416 97.9392 55.8925 98.0623 54.0444C100.164 54.9023 102.274 55.7397 104.392 56.5564C106.504 55.7528 108.614 54.9505 110.722 54.149Z" fill="#047BEC"/>
</g>
<g id="Group_6">
<path id="Vector_6" fill-rule="evenodd" clip-rule="evenodd" d="M110.722 54.149C110.729 54.0922 110.763 54.0574 110.828 54.0444C110.968 55.8755 110.968 57.6898 110.828 59.487C110.863 57.6894 110.828 55.9101 110.722 54.149Z" fill="#89C0F1"/>
</g>
<g id="Group_7">
<path id="Vector_7" fill-rule="evenodd" clip-rule="evenodd" d="M112.832 56.7657C113.22 56.7484 113.608 56.7658 113.993 56.818C114.274 57.0273 114.274 57.2367 113.993 57.446C113.606 57.5158 113.219 57.5158 112.832 57.446C112.562 57.2203 112.562 56.9935 112.832 56.7657Z" fill="#E9EFF5"/>
</g>
<g id="Group_8">
<path id="Vector_8" fill-rule="evenodd" clip-rule="evenodd" d="M116.208 56.7657C116.562 56.7484 116.913 56.7659 117.263 56.818C117.455 56.9715 117.508 57.1633 117.422 57.3937C116.991 57.5119 116.551 57.5294 116.103 57.446C115.959 57.1934 115.995 56.9666 116.208 56.7657Z" fill="#E8EEF5"/>
</g>
<g id="Group_9">
<path id="Vector_9" fill-rule="evenodd" clip-rule="evenodd" d="M114.942 57.603C115.142 57.5818 115.3 57.6515 115.417 57.8124C115.488 58.1962 115.488 58.5799 115.417 58.9637C115.206 59.2428 114.995 59.2428 114.784 58.9637C114.676 58.4792 114.729 58.0257 114.942 57.603Z" fill="#E8EEF5"/>
</g>
<g id="Group_10">
<path id="Vector_10" fill-rule="evenodd" clip-rule="evenodd" d="M91.4157 65.0343C91.6195 64.6783 91.936 64.4515 92.3652 64.354C93.0093 64.2326 93.6072 64.3373 94.1587 64.668C94.5229 65.0588 94.8218 65.4949 95.0555 65.9763C95.474 66.9107 95.8609 67.8527 96.216 68.8023C96.5724 67.3227 97.135 65.9271 97.904 64.6157C98.4022 63.9839 99 63.8443 99.6975 64.197C99.7497 64.4035 99.7673 64.6129 99.7502 64.825C99.4522 64.7577 99.1885 64.6181 98.959 64.4063C98.4017 64.7051 98.015 65.1586 97.7985 65.767C97.2992 67.1835 96.842 68.6139 96.427 70.0583C96.1222 70.9653 95.7353 71.8376 95.2665 72.675C94.4547 74.0365 93.3118 74.4377 91.8377 73.8787C91.5404 73.575 91.5757 73.3134 91.9432 73.0937C92.4173 73.8615 93.0503 74.0185 93.8422 73.5647C94.668 72.8511 95.1075 71.9614 95.161 70.8957C94.5874 69.0488 93.8489 67.2695 92.9455 65.5577C92.5931 64.8683 92.0832 64.6939 91.4157 65.0343Z" fill="#EDF0F5"/>
</g>
<g id="Group_11">
<path id="Vector_11" fill-rule="evenodd" clip-rule="evenodd" d="M131.717 66.081C131.687 65.9985 131.634 65.9286 131.559 65.8717C131.506 67.1621 131.488 68.453 131.506 69.7444C131.469 70.676 131.011 71.2866 130.134 71.576C129.598 71.6338 129.071 71.6338 128.552 71.576C128.829 71.9562 129.146 72.305 129.501 72.6227C129.685 72.6908 129.86 72.6735 130.029 72.5704C130.169 72.6402 130.169 72.7099 130.029 72.7797C128.612 73.4878 127.575 73.1389 126.917 71.733C126.293 70.4606 125.642 69.2046 124.965 67.965C125.624 67.9214 125.993 67.5725 126.073 66.9184C126.192 66.2637 126.121 65.6357 125.862 65.0344C125.54 64.667 125.188 64.6321 124.807 64.9297C124.772 67.023 124.736 69.1164 124.701 71.2097C124.648 71.4016 124.525 71.5237 124.332 71.576C123.9 71.7045 123.531 71.6173 123.224 71.3144C123.206 69.1852 123.153 67.0571 123.066 64.9297C122.343 64.7557 121.763 64.9651 121.325 65.5577C121.201 66.3152 121.482 66.4896 122.169 66.081C122.635 66.4015 122.653 66.7679 122.222 67.18C121.29 67.5377 120.763 67.2237 120.639 66.238C120.653 65.7782 120.829 65.3944 121.167 65.0867C121.582 64.7932 122.04 64.5839 122.538 64.4587C123.553 64.3026 124.573 64.2678 125.598 64.354C127.159 64.472 127.81 65.292 127.55 66.8137C127.314 67.3612 126.91 67.7276 126.336 67.9127C126.639 68.1782 126.903 68.4748 127.128 68.8024C127.487 69.5516 127.874 70.2842 128.288 71.0004C128.325 70.8245 128.43 70.7199 128.605 70.6864C129.088 71.3731 129.703 71.4952 130.451 71.0527C130.643 70.8643 130.765 70.6376 130.82 70.3724C130.989 68.5279 131.024 66.6788 130.926 64.825C130.167 64.6602 129.569 64.9044 129.132 65.5577C129.052 65.7952 129.07 66.022 129.185 66.238C129.493 66.313 129.773 66.2606 130.029 66.081C130.357 66.3222 130.428 66.6362 130.24 67.023C129.258 67.5824 128.695 67.3033 128.552 66.1857C128.683 65.2004 129.245 64.5899 130.24 64.354C131.012 64.2206 131.751 64.3078 132.455 64.6157C133.3 66.1533 134.092 67.7233 134.829 69.3257C134.864 68.1395 134.9 66.9532 134.935 65.767C135.366 64.288 136.333 63.7821 137.836 64.2494C138.158 64.4149 138.228 64.659 138.047 64.982C137.895 65.0638 137.753 65.0463 137.625 64.9297C137.101 64.2712 136.521 64.2363 135.884 64.825C135.654 65.1773 135.513 65.5612 135.462 65.9764C135.391 67.4766 135.391 68.9769 135.462 70.477C135.791 71.0793 136.231 71.5851 136.781 71.9947C137.858 72.0161 137.858 72.1904 136.781 72.518C136.294 72.6234 135.838 72.5536 135.409 72.3087C134.713 71.8279 134.169 71.2173 133.774 70.477C133.001 69.0471 132.315 67.5817 131.717 66.081Z" fill="#EDF1F5"/>
</g>
<g id="Group_12">
<path id="Vector_12" fill-rule="evenodd" clip-rule="evenodd" d="M78.7557 68.1743C78.0524 68.1743 77.3491 68.1743 76.6457 68.1743C76.6115 68.9266 76.6467 69.6593 76.7512 70.3723C76.9155 70.8297 77.2496 71.0391 77.7535 71.0003C78.31 70.9094 78.8375 70.7349 79.336 70.477C79.3887 70.5119 79.4415 70.5468 79.4942 70.5817C79.4085 70.7192 79.303 70.8414 79.1777 70.948C79.7102 71.8009 80.3256 71.8533 81.024 71.105C81.3035 70.6394 81.5321 70.1509 81.7097 69.6397C81.767 69.6334 81.8022 69.5985 81.8152 69.535C81.4347 69.4315 81.0478 69.3965 80.6547 69.4303C80.6547 69.3257 80.6547 69.221 80.6547 69.1163C81.0767 69.1163 81.4987 69.1163 81.9207 69.1163C82.2078 67.9297 82.5068 66.7436 82.8175 65.5577C82.9454 65.2087 82.8575 64.9471 82.5537 64.7727C81.7978 64.6272 81.1824 64.854 80.7075 65.453C80.5173 66.2939 80.7985 66.5032 81.5515 66.081C81.8896 66.2169 81.9951 66.4612 81.868 66.8137C81.4207 67.4203 80.8932 67.4901 80.2855 67.023C79.851 66.1888 80.0093 65.4735 80.7602 64.8773C81.889 64.2033 83.0495 64.1336 84.2417 64.668C84.3168 64.7994 84.4046 64.9214 84.5055 65.0343C84.93 66.3908 85.3344 67.7515 85.7187 69.1163C86.0704 69.1163 86.4221 69.1163 86.7738 69.1163C86.7738 69.2559 86.7738 69.3955 86.7738 69.535C86.4924 69.535 86.2111 69.535 85.9297 69.535C85.9841 70.067 86.1247 70.5729 86.3518 71.0527C86.5935 71.0543 86.8221 71.0717 87.0375 71.105C87.1988 70.9764 87.3219 70.8194 87.4068 70.634C87.5826 70.5642 87.7584 70.5642 87.9343 70.634C88.1608 71.1118 88.3718 71.6002 88.5673 72.0993C89.3981 72.418 89.9432 72.1563 90.2025 71.3143C90.2596 70.5186 90.0133 69.8209 89.464 69.221C88.7102 68.5085 88.0772 67.7062 87.565 66.8137C87.4531 64.8675 88.3849 64.0477 90.3608 64.354C90.7695 64.5038 91.1211 64.7305 91.4158 65.0343C91.4331 65.3156 91.4154 65.5947 91.363 65.8717C91.1792 66.1701 90.9331 66.2399 90.6245 66.081C90.5058 65.7373 90.4003 65.3884 90.308 65.0343C89.8882 64.6006 89.5015 64.6356 89.1475 65.139C89.056 65.6054 89.0912 66.0589 89.253 66.4997C89.7374 67.19 90.3 67.818 90.941 68.3837C91.2641 68.8096 91.5455 69.2631 91.785 69.7443C92.0666 71.3475 91.4161 72.3419 89.8333 72.7273C89.0373 72.8797 88.2988 72.7402 87.6178 72.3087C87.3183 71.9944 87.1073 71.628 86.9848 71.2097C86.4058 71.5967 85.7728 71.7188 85.0857 71.576C84.9626 71.4539 84.8396 71.3318 84.7165 71.2097C84.525 70.6588 84.3668 70.1005 84.2417 69.535C83.5736 69.535 82.9054 69.535 82.2372 69.535C82.0637 70.666 81.4658 71.486 80.4437 71.9947C79.8302 72.1422 79.285 72.02 78.8085 71.6283C78.7575 71.5291 78.74 71.4245 78.7557 71.3143C77.9691 71.5905 77.1603 71.6776 76.3292 71.576C75.6811 71.4735 75.2942 71.1072 75.1687 70.477C75.1687 69.7095 75.1687 68.9419 75.1687 68.1743C74.9226 68.1743 74.6764 68.1743 74.4302 68.1743C74.4302 68.0697 74.4302 67.965 74.4302 67.8603C74.666 67.8912 74.877 67.8563 75.0632 67.7557C75.1681 66.7628 75.2032 65.7511 75.1687 64.7203C74.9667 64.6906 74.791 64.7255 74.6412 64.825C74.0152 64.9172 73.5405 65.2312 73.217 65.767C73.1386 65.9702 73.1562 66.162 73.2697 66.3427C73.5625 66.4241 73.8263 66.3718 74.061 66.1857C74.4387 66.4027 74.5267 66.7167 74.3247 67.1277C73.6619 67.6142 73.1168 67.5095 72.6895 66.8137C72.5071 66.1119 72.7006 65.5362 73.2697 65.0867C74.4025 64.4048 75.6333 64.1431 76.9622 64.3017C77.6736 64.2905 78.377 64.3428 79.0722 64.4587C79.343 64.6969 79.3254 64.9237 79.0195 65.139C78.3113 64.779 77.5552 64.6393 76.7512 64.7203C76.7512 65.7322 76.7512 66.7439 76.7512 67.7557C77.4194 67.7557 78.0876 67.7557 78.7557 67.7557C78.7557 67.8952 78.7557 68.0348 78.7557 68.1743Z" fill="#ECF0F5"/>
</g>
<g id="Group_13">
<path id="Vector_13" fill-rule="evenodd" clip-rule="evenodd" d="M102.493 64.3017C103.022 64.2843 103.549 64.3018 104.076 64.354C104.264 64.4362 104.422 64.5582 104.55 64.7204C104.586 66.7788 104.621 68.8372 104.656 70.8957C104.709 70.948 104.761 71.0004 104.814 71.0527C105.547 71.1865 106.233 71.0644 106.871 70.6864C107.145 70.8106 107.197 71.0025 107.03 71.262C106.305 71.5621 105.55 71.6841 104.761 71.6284C104.357 71.6109 103.953 71.5935 103.548 71.576C103.36 71.4939 103.202 71.3718 103.073 71.2097C102.935 69.0908 102.865 66.9626 102.862 64.825C102.087 64.7035 101.489 64.9827 101.069 65.6624C100.991 65.8655 101.008 66.0574 101.122 66.238C101.43 66.313 101.711 66.2606 101.966 66.081C102.204 66.1698 102.31 66.3443 102.282 66.6044C102.063 67.3052 101.606 67.4972 100.911 67.18C100.307 66.3953 100.377 65.6627 101.122 64.982C101.559 64.6952 102.016 64.4684 102.493 64.3017Z" fill="#E9EEF5"/>
</g>
<g id="Group_14">
<path id="Vector_14" fill-rule="evenodd" clip-rule="evenodd" d="M109.562 70.2677C109.562 69.5699 109.562 68.8722 109.562 68.1744C109.316 68.1744 109.069 68.1744 108.823 68.1744C108.823 68.0697 108.823 67.965 108.823 67.8604C109.069 67.8604 109.316 67.8604 109.562 67.8604C109.562 66.8137 109.562 65.767 109.562 64.7204C109.393 64.6923 109.253 64.7273 109.14 64.825C108.572 64.8884 108.097 65.1327 107.715 65.5577C107.516 66.3983 107.798 66.6076 108.559 66.1857C109.026 66.5062 109.044 66.8725 108.612 67.2847C107.404 67.5874 106.895 67.1164 107.082 65.8717C107.52 65.1249 108.171 64.6539 109.034 64.4587C110.545 64.2563 112.057 64.2563 113.571 64.4587C113.732 64.7223 113.696 64.9491 113.465 65.139C112.733 64.7818 111.96 64.6423 111.144 64.7204C111.144 65.7322 111.144 66.7439 111.144 67.7557C111.812 67.7557 112.481 67.7557 113.149 67.7557C113.149 67.8952 113.149 68.0349 113.149 68.1744C112.481 68.1744 111.812 68.1744 111.144 68.1744C111.126 68.9427 111.144 69.7102 111.197 70.477C111.285 70.7039 111.443 70.8609 111.672 70.948C112.421 71.0138 113.124 70.8568 113.782 70.477C113.867 70.5093 113.937 70.5616 113.993 70.634C113.852 70.7387 113.711 70.8434 113.571 70.948C114.172 71.8194 114.823 71.8369 115.522 71.0004C115.805 70.5437 115.999 70.0552 116.103 69.535C115.751 69.535 115.399 69.535 115.048 69.535C115.048 69.3955 115.048 69.2559 115.048 69.1164C115.47 69.1164 115.892 69.1164 116.314 69.1164C116.622 67.9715 116.92 66.8202 117.21 65.6624C117.281 65.4182 117.281 65.1739 117.21 64.9297C116.448 64.5757 115.779 64.7153 115.206 65.3484C114.839 66.24 115.085 66.4842 115.944 66.081C116.293 66.2546 116.398 66.5337 116.261 66.9184C115.733 67.4766 115.206 67.4766 114.678 66.9184C114.304 66.0068 114.532 65.2916 115.364 64.7727C116.44 64.1935 117.53 64.1585 118.635 64.668C118.771 64.8156 118.893 64.9726 119.004 65.139C119.406 66.458 119.775 67.7839 120.112 69.1164C120.499 69.1164 120.885 69.1164 121.272 69.1164C121.272 69.2559 121.272 69.3955 121.272 69.535C120.948 69.5019 120.632 69.5367 120.323 69.6397C120.485 70.1234 120.626 70.6118 120.745 71.105C120.953 71.1301 121.146 71.0952 121.325 71.0004C121.378 71.0527 121.43 71.105 121.483 71.1574C120.835 71.6333 120.132 71.738 119.373 71.4714C119.286 71.3842 119.197 71.2969 119.109 71.2097C118.967 70.6809 118.809 70.1576 118.635 69.6397C118.005 69.5179 117.372 69.5005 116.736 69.5874C116.505 70.7108 115.872 71.5132 114.837 71.9947C114.228 72.1297 113.683 72.0076 113.201 71.6284C113.151 71.5291 113.133 71.4245 113.149 71.3144C112.364 71.5994 111.556 71.6866 110.722 71.576C110.012 71.4133 109.626 70.9772 109.562 70.2677Z" fill="#EBF0F5"/>
</g>
<g id="Group_15">
<path id="Vector_15" fill-rule="evenodd" clip-rule="evenodd" d="M74.6413 64.825C74.791 64.7255 74.9667 64.6906 75.1688 64.7203C75.2033 65.7511 75.1681 66.7628 75.0633 67.7557C75.0633 66.7788 75.0633 65.8019 75.0633 64.825C74.9226 64.825 74.7819 64.825 74.6413 64.825Z" fill="#8DC0F1"/>
</g>
<g id="Group_16">
<path id="Vector_16" fill-rule="evenodd" clip-rule="evenodd" d="M109.14 64.825C109.253 64.7273 109.393 64.6923 109.562 64.7204C109.562 65.767 109.562 66.8137 109.562 67.8604C109.316 67.8604 109.069 67.8604 108.823 67.8604C108.823 67.965 108.823 68.0697 108.823 68.1744C109.069 68.1744 109.316 68.1744 109.562 68.1744C109.562 68.8722 109.562 69.5699 109.562 70.2677C109.457 69.6245 109.422 68.9617 109.456 68.279C109.21 68.279 108.964 68.279 108.718 68.279C108.718 68.1046 108.718 67.9302 108.718 67.7557C108.964 67.7557 109.21 67.7557 109.456 67.7557C109.456 66.7788 109.456 65.8019 109.456 64.825C109.351 64.825 109.245 64.825 109.14 64.825Z" fill="#5CA8EF"/>
</g>
<g id="Group_17">
<path id="Vector_17" fill-rule="evenodd" clip-rule="evenodd" d="M84.0307 69.0117C83.5177 69.0451 83.0253 69.0102 82.5537 68.907C82.7326 68.0228 82.9612 67.1506 83.2395 66.2903C83.5363 67.1888 83.8 68.0959 84.0307 69.0117Z" fill="#2181EC"/>
</g>
<g id="Group_18">
<path id="Vector_18" fill-rule="evenodd" clip-rule="evenodd" d="M117.58 66.2903C117.985 67.1839 118.267 68.1259 118.424 69.1163C117.931 69.1163 117.439 69.1163 116.947 69.1163C117.141 68.1717 117.352 67.2297 117.58 66.2903Z" fill="#2583EC"/>
</g>
<g id="Group_19">
<path id="Vector_19" fill-rule="evenodd" clip-rule="evenodd" d="M131.717 66.081C131.646 67.3022 131.576 68.5232 131.506 69.7444C131.488 68.453 131.506 67.1621 131.558 65.8717C131.634 65.9286 131.687 65.9985 131.717 66.081Z" fill="#ADD0F2"/>
</g>
<g id="Group_20">
<path id="Vector_20" fill-rule="evenodd" clip-rule="evenodd" d="M75.0633 67.7557C74.8771 67.8563 74.6661 67.8912 74.4303 67.8603C74.4303 67.965 74.4303 68.0697 74.4303 68.1743C74.6764 68.1743 74.9226 68.1743 75.1688 68.1743C75.1688 68.9419 75.1688 69.7095 75.1688 70.477C75.0642 69.7639 75.029 69.0312 75.0633 68.279C74.8171 68.279 74.5709 68.279 74.3248 68.279C74.3248 68.1045 74.3248 67.9302 74.3248 67.7557C74.5709 67.7557 74.8171 67.7557 75.0633 67.7557Z" fill="#91C2F1"/>
</g>
<g id="Group_21">
<path id="Vector_21" fill-rule="evenodd" clip-rule="evenodd" d="M78.7557 68.1744C78.1074 68.278 77.4393 68.3129 76.7512 68.279C76.7512 68.9769 76.7512 69.6746 76.7512 70.3724C76.6467 69.6593 76.6115 68.9266 76.6457 68.1744C77.3491 68.1744 78.0524 68.1744 78.7557 68.1744Z" fill="#8DC0F1"/>
</g>
<g id="Group_22">
<path id="Vector_22" fill-rule="evenodd" clip-rule="evenodd" d="M82.5537 68.907C83.0253 69.0102 83.5177 69.0451 84.0307 69.0117C83.5193 69.1492 82.9918 69.1492 82.4482 69.0117C82.4613 68.9481 82.4965 68.9133 82.5537 68.907Z" fill="#55A5EF"/>
</g>
<g id="Group_23">
<path id="Vector_23" fill-rule="evenodd" clip-rule="evenodd" d="M80.6547 69.1164C80.6547 69.221 80.6547 69.3257 80.6547 69.4304C81.0478 69.3966 81.4347 69.4315 81.8152 69.535C81.8022 69.5986 81.767 69.6334 81.7097 69.6397C81.3445 69.5369 80.9576 69.5021 80.5492 69.535C80.521 69.3677 80.5562 69.2281 80.6547 69.1164Z" fill="#A8CEF2"/>
</g>
</g>
</svg>
