<?xml version="1.0" encoding="UTF-8"?>
<!DOCTYPE svg PUBLIC "-//W3C//DTD SVG 1.1//EN" "http://www.w3.org/Graphics/SVG/1.1/DTD/svg11.dtd">
<svg xmlns="http://www.w3.org/2000/svg" version="1.1" width="2000px" height="1500px" style="shape-rendering:geometricPrecision; text-rendering:geometricPrecision; image-rendering:optimizeQuality; fill-rule:evenodd; clip-rule:evenodd" xmlns:xlink="http://www.w3.org/1999/xlink">
<g><path style="opacity:1" fill="#fefefe" d="M -0.5,-0.5 C 666.167,-0.5 1332.83,-0.5 1999.5,-0.5C 1999.5,499.5 1999.5,999.5 1999.5,1499.5C 1332.83,1499.5 666.167,1499.5 -0.5,1499.5C -0.5,999.5 -0.5,499.5 -0.5,-0.5 Z"/></g>
<g><path style="opacity:1" fill="#167eec" d="M 972.5,249.5 C 1139.11,245.583 1276.61,306.25 1385,431.5C 1490.27,565.434 1522.27,715.434 1481,881.5C 1449.56,991.281 1388.73,1080.78 1298.5,1150C 1186.6,1230.83 1061.94,1262.16 924.5,1244C 793.879,1222.22 687.379,1160.05 605,1057.5C 518.851,942.917 485.518,814.25 505,671.5C 532.127,520.162 610.293,403.662 739.5,322C 811.365,278.988 889.031,254.822 972.5,249.5 Z"/></g>
<g><path style="opacity:1" fill="#f9fcfe" d="M 978.5,258.5 C 1152.56,256.386 1292.06,324.052 1397,461.5C 1480.07,580.18 1507.41,710.847 1479,853.5C 1447.45,987.306 1374.29,1091.47 1259.5,1166C 1143.89,1235.71 1019.89,1256.38 887.5,1228C 734.776,1188.91 623.609,1098.74 554,957.5C 500.517,837.768 493.85,715.435 534,590.5C 580.413,462.757 664.246,368.257 785.5,307C 846.656,277.794 910.989,261.628 978.5,258.5 Z"/></g>
<g><path style="opacity:1" fill="#007bec" d="M 972.5,269.5 C 1124.72,265.233 1252.55,318.233 1356,428.5C 1453.19,540.529 1492.53,670.529 1474,818.5C 1452.81,948.794 1390.31,1053.96 1286.5,1134C 1178.53,1212.3 1058.2,1242.3 925.5,1224C 776.94,1197.54 663.44,1120.37 585,992.5C 520.574,878.262 503.574,757.262 534,629.5C 568.618,505.277 640.118,408.777 748.5,340C 817.508,298.274 892.175,274.774 972.5,269.5 Z"/></g>
<g><path style="opacity:1" fill="#eaeff5" d="M 986.5,622.5 C 990.319,622.605 993.986,623.438 997.5,625C 1029.5,637 1061.5,649 1093.5,661C 1094.66,676.092 1094.82,691.259 1094,706.5C 1092,709.167 1090,709.167 1088,706.5C 1087.82,692.925 1087.32,679.425 1086.5,666C 1054.09,653.92 1021.76,641.754 989.5,629.5C 959.022,640.713 928.689,652.213 898.5,664C 928.628,676.733 958.961,688.899 989.5,700.5C 1016.67,690.497 1043.67,679.997 1070.5,669C 1076.38,666.234 1078.71,667.9 1077.5,674C 1071.32,676.504 1065.15,679.004 1059,681.5C 1058.67,700.167 1058.33,718.833 1058,737.5C 1056.94,740.562 1055.11,743.062 1052.5,745C 1038.53,751.329 1023.86,754.995 1008.5,756C 988.028,757.339 967.695,756.339 947.5,753C 940.121,751.318 933.121,748.652 926.5,745C 924.291,743.127 922.458,740.96 921,738.5C 920.833,719.158 920.333,699.825 919.5,680.5C 907.66,676.169 896.16,671.169 885,665.5C 884.333,664.167 884.333,662.833 885,661.5C 918.877,648.378 952.71,635.378 986.5,622.5 Z"/></g>
<g><path style="opacity:1" fill="#047bec" d="M 1049.5,685.5 C 1050.5,702.325 1050.83,719.325 1050.5,736.5C 1048.42,739.051 1045.76,740.884 1042.5,742C 1011.83,750.38 980.835,751.713 949.5,746C 941.875,744.908 935.042,742.074 929,737.5C 928.167,719.824 928.334,702.157 929.5,684.5C 949.426,692.697 969.426,700.697 989.5,708.5C 1009.52,700.823 1029.52,693.157 1049.5,685.5 Z"/></g>
<g><path style="opacity:1" fill="#89c0f1" d="M 1049.5,685.5 C 1049.56,684.957 1049.89,684.624 1050.5,684.5C 1051.83,701.995 1051.83,719.329 1050.5,736.5C 1050.83,719.325 1050.5,702.325 1049.5,685.5 Z"/></g>
<g><path style="opacity:1" fill="#e9eff5" d="M 1069.5,710.5 C 1073.18,710.335 1076.85,710.501 1080.5,711C 1083.17,713 1083.17,715 1080.5,717C 1076.83,717.667 1073.17,717.667 1069.5,717C 1066.94,714.844 1066.94,712.677 1069.5,710.5 Z"/></g>
<g><path style="opacity:1" fill="#e8eef5" d="M 1101.5,710.5 C 1104.85,710.335 1108.18,710.502 1111.5,711C 1113.32,712.466 1113.82,714.299 1113,716.5C 1108.92,717.629 1104.75,717.796 1100.5,717C 1099.14,714.586 1099.48,712.419 1101.5,710.5 Z"/></g>
<g><path style="opacity:1" fill="#e8eef5" d="M 1089.5,718.5 C 1091.39,718.297 1092.89,718.963 1094,720.5C 1094.67,724.167 1094.67,727.833 1094,731.5C 1092,734.167 1090,734.167 1088,731.5C 1086.98,726.871 1087.48,722.538 1089.5,718.5 Z"/></g>
<g><path style="opacity:1" fill="#edf0f5" d="M 866.5,789.5 C 868.431,786.098 871.431,783.931 875.5,783C 881.605,781.84 887.272,782.84 892.5,786C 895.952,789.734 898.785,793.9 901,798.5C 904.967,807.427 908.634,816.427 912,825.5C 915.378,811.363 920.711,798.03 928,785.5C 932.722,779.464 938.389,778.13 945,781.5C 945.495,783.473 945.662,785.473 945.5,787.5C 942.675,786.857 940.175,785.523 938,783.5C 932.718,786.354 929.052,790.687 927,796.5C 922.267,810.033 917.934,823.7 914,837.5C 911.111,846.165 907.444,854.499 903,862.5C 895.305,875.508 884.472,879.341 870.5,874C 867.682,871.099 868.016,868.599 871.5,866.5C 875.993,873.836 881.993,875.336 889.5,871C 897.327,864.182 901.493,855.682 902,845.5C 896.563,827.855 889.563,810.855 881,794.5C 877.66,787.914 872.827,786.247 866.5,789.5 Z"/></g>
<g><path style="opacity:1" fill="#edf1f5" d="M 1248.5,799.5 C 1248.22,798.711 1247.72,798.044 1247,797.5C 1246.5,809.829 1246.33,822.162 1246.5,834.5C 1246.15,843.401 1241.81,849.235 1233.5,852C 1228.42,852.552 1223.42,852.552 1218.5,852C 1221.13,855.632 1224.13,858.965 1227.5,862C 1229.24,862.651 1230.9,862.485 1232.5,861.5C 1233.83,862.167 1233.83,862.833 1232.5,863.5C 1219.07,870.265 1209.24,866.932 1203,853.5C 1197.09,841.343 1190.92,829.343 1184.5,817.5C 1190.75,817.083 1194.25,813.75 1195,807.5C 1196.13,801.245 1195.46,795.245 1193,789.5C 1189.95,785.99 1186.62,785.657 1183,788.5C 1182.67,808.5 1182.33,828.5 1182,848.5C 1181.5,850.333 1180.33,851.5 1178.5,852C 1174.41,853.227 1170.91,852.394 1168,849.5C 1167.83,829.158 1167.33,808.825 1166.5,788.5C 1159.65,786.838 1154.15,788.838 1150,794.5C 1148.82,801.737 1151.49,803.403 1158,799.5C 1162.42,802.562 1162.59,806.062 1158.5,810C 1149.67,813.417 1144.67,810.417 1143.5,801C 1143.63,796.607 1145.3,792.94 1148.5,790C 1152.44,787.196 1156.78,785.196 1161.5,784C 1171.12,782.509 1180.79,782.176 1190.5,783C 1205.3,784.127 1211.47,791.961 1209,806.5C 1206.77,811.731 1202.94,815.231 1197.5,817C 1200.37,819.537 1202.87,822.37 1205,825.5C 1208.41,832.658 1212.08,839.658 1216,846.5C 1216.35,844.82 1217.35,843.82 1219,843.5C 1223.58,850.061 1229.41,851.228 1236.5,847C 1238.32,845.2 1239.48,843.034 1240,840.5C 1241.6,822.878 1241.93,805.211 1241,787.5C 1233.81,785.925 1228.14,788.258 1224,794.5C 1223.24,796.769 1223.41,798.936 1224.5,801C 1227.42,801.716 1230.08,801.216 1232.5,799.5C 1235.61,801.804 1236.28,804.804 1234.5,808.5C 1225.19,813.844 1219.86,811.178 1218.5,800.5C 1219.74,791.086 1225.07,785.253 1234.5,783C 1241.82,781.725 1248.82,782.558 1255.5,785.5C 1263.51,800.19 1271.01,815.19 1278,830.5C 1278.33,819.167 1278.67,807.833 1279,796.5C 1283.09,782.369 1292.26,777.536 1306.5,782C 1309.55,783.581 1310.22,785.914 1308.5,789C 1307.06,789.781 1305.72,789.614 1304.5,788.5C 1299.54,782.209 1294.04,781.875 1288,787.5C 1285.82,790.866 1284.48,794.533 1284,798.5C 1283.33,812.833 1283.33,827.167 1284,841.5C 1287.12,847.254 1291.29,852.087 1296.5,856C 1306.71,856.204 1306.71,857.87 1296.5,861C 1291.89,862.007 1287.56,861.34 1283.5,859C 1276.9,854.406 1271.74,848.573 1268,841.5C 1260.67,827.838 1254.17,813.838 1248.5,799.5 Z"/></g>
<g><path style="opacity:1" fill="#ecf0f5" d="M 746.5,819.5 C 739.833,819.5 733.167,819.5 726.5,819.5C 726.175,826.687 726.509,833.687 727.5,840.5C 729.057,844.87 732.224,846.87 737,846.5C 742.275,845.631 747.275,843.964 752,841.5C 752.5,841.833 753,842.167 753.5,842.5C 752.687,843.814 751.687,844.981 750.5,846C 755.547,854.149 761.38,854.649 768,847.5C 770.649,843.051 772.816,838.384 774.5,833.5C 775.043,833.44 775.376,833.107 775.5,832.5C 771.893,831.511 768.226,831.177 764.5,831.5C 764.5,830.5 764.5,829.5 764.5,828.5C 768.5,828.5 772.5,828.5 776.5,828.5C 779.221,817.163 782.055,805.83 785,794.5C 786.212,791.166 785.379,788.666 782.5,787C 775.335,785.61 769.501,787.777 765,793.5C 763.197,801.534 765.863,803.534 773,799.5C 776.205,800.798 777.205,803.132 776,806.5C 771.76,812.296 766.76,812.963 761,808.5C 756.882,800.53 758.382,793.696 765.5,788C 776.199,781.56 787.199,780.894 798.5,786C 799.211,787.255 800.044,788.421 801,789.5C 805.024,802.46 808.857,815.46 812.5,828.5C 815.833,828.5 819.167,828.5 822.5,828.5C 822.5,829.833 822.5,831.167 822.5,832.5C 819.833,832.5 817.167,832.5 814.5,832.5C 815.015,837.583 816.348,842.416 818.5,847C 820.791,847.015 822.958,847.182 825,847.5C 826.529,846.271 827.696,844.771 828.5,843C 830.167,842.333 831.833,842.333 833.5,843C 835.647,847.565 837.647,852.231 839.5,857C 847.375,860.044 852.542,857.544 855,849.5C 855.541,841.897 853.207,835.231 848,829.5C 840.855,822.693 834.855,815.027 830,806.5C 828.939,787.906 837.772,780.073 856.5,783C 860.374,784.431 863.707,786.597 866.5,789.5C 866.664,792.187 866.497,794.854 866,797.5C 864.258,800.351 861.925,801.018 859,799.5C 857.875,796.216 856.875,792.883 856,789.5C 852.021,785.356 848.355,785.69 845,790.5C 844.133,794.956 844.466,799.289 846,803.5C 850.591,810.095 855.924,816.095 862,821.5C 865.063,825.569 867.73,829.902 870,834.5C 872.669,849.817 866.503,859.317 851.5,863C 843.955,864.456 836.955,863.123 830.5,859C 827.662,855.997 825.662,852.497 824.5,848.5C 819.012,852.198 813.012,853.364 806.5,852C 805.333,850.833 804.167,849.667 803,848.5C 801.185,843.237 799.685,837.903 798.5,832.5C 792.167,832.5 785.833,832.5 779.5,832.5C 777.855,843.306 772.188,851.14 762.5,856C 756.684,857.409 751.517,856.242 747,852.5C 746.517,851.552 746.351,850.552 746.5,849.5C 739.044,852.138 731.377,852.971 723.5,852C 717.356,851.021 713.689,847.521 712.5,841.5C 712.5,834.167 712.5,826.833 712.5,819.5C 710.167,819.5 707.833,819.5 705.5,819.5C 705.5,818.5 705.5,817.5 705.5,816.5C 707.735,816.795 709.735,816.461 711.5,815.5C 712.494,806.014 712.827,796.348 712.5,786.5C 710.585,786.216 708.919,786.549 707.5,787.5C 701.566,788.381 697.066,791.381 694,796.5C 693.257,798.441 693.424,800.274 694.5,802C 697.275,802.778 699.775,802.278 702,800.5C 705.58,802.573 706.414,805.573 704.5,809.5C 698.217,814.148 693.05,813.148 689,806.5C 687.271,799.795 689.105,794.295 694.5,790C 705.237,783.485 716.903,780.985 729.5,782.5C 736.243,782.393 742.91,782.893 749.5,784C 752.066,786.276 751.9,788.443 749,790.5C 742.287,787.06 735.12,785.726 727.5,786.5C 727.5,796.167 727.5,805.833 727.5,815.5C 733.833,815.5 740.167,815.5 746.5,815.5C 746.5,816.833 746.5,818.167 746.5,819.5 Z"/></g>
<g><path style="opacity:1" fill="#e9eef5" d="M 971.5,782.5 C 976.511,782.334 981.511,782.501 986.5,783C 988.286,783.785 989.786,784.951 991,786.5C 991.333,806.167 991.667,825.833 992,845.5C 992.5,846 993,846.5 993.5,847C 1000.45,848.278 1006.95,847.112 1013,843.5C 1015.59,844.687 1016.09,846.52 1014.5,849C 1007.63,851.867 1000.47,853.033 993,852.5C 989.167,852.333 985.333,852.167 981.5,852C 979.714,851.215 978.214,850.049 977,848.5C 975.69,828.256 975.023,807.923 975,787.5C 967.65,786.339 961.984,789.006 958,795.5C 957.257,797.441 957.424,799.274 958.5,801C 961.418,801.716 964.085,801.216 966.5,799.5C 968.761,800.348 969.761,802.015 969.5,804.5C 967.426,811.196 963.093,813.03 956.5,810C 950.776,802.503 951.443,795.503 958.5,789C 962.647,786.26 966.98,784.093 971.5,782.5 Z"/></g>
<g><path style="opacity:1" fill="#ebf0f5" d="M 1038.5,839.5 C 1038.5,832.833 1038.5,826.167 1038.5,819.5C 1036.17,819.5 1033.83,819.5 1031.5,819.5C 1031.5,818.5 1031.5,817.5 1031.5,816.5C 1033.83,816.5 1036.17,816.5 1038.5,816.5C 1038.5,806.5 1038.5,796.5 1038.5,786.5C 1036.9,786.232 1035.57,786.566 1034.5,787.5C 1029.12,788.105 1024.62,790.439 1021,794.5C 1019.11,802.531 1021.78,804.531 1029,800.5C 1033.42,803.562 1033.59,807.062 1029.5,811C 1018.05,813.892 1013.22,809.392 1015,797.5C 1019.15,790.365 1025.32,785.865 1033.5,784C 1047.82,782.066 1062.15,782.066 1076.5,784C 1078.03,786.518 1077.69,788.685 1075.5,790.5C 1068.56,787.087 1061.23,785.754 1053.5,786.5C 1053.5,796.167 1053.5,805.833 1053.5,815.5C 1059.83,815.5 1066.17,815.5 1072.5,815.5C 1072.5,816.833 1072.5,818.167 1072.5,819.5C 1066.17,819.5 1059.83,819.5 1053.5,819.5C 1053.33,826.841 1053.5,834.174 1054,841.5C 1054.83,843.667 1056.33,845.167 1058.5,846C 1065.6,846.628 1072.27,845.128 1078.5,841.5C 1079.31,841.808 1079.97,842.308 1080.5,843C 1079.17,844 1077.83,845 1076.5,846C 1082.2,854.325 1088.37,854.492 1095,846.5C 1097.68,842.137 1099.52,837.47 1100.5,832.5C 1097.17,832.5 1093.83,832.5 1090.5,832.5C 1090.5,831.167 1090.5,829.833 1090.5,828.5C 1094.5,828.5 1098.5,828.5 1102.5,828.5C 1105.42,817.562 1108.25,806.562 1111,795.5C 1111.67,793.167 1111.67,790.833 1111,788.5C 1103.77,785.118 1097.43,786.452 1092,792.5C 1088.52,801.019 1090.85,803.352 1099,799.5C 1102.3,801.158 1103.3,803.825 1102,807.5C 1097,812.833 1092,812.833 1087,807.5C 1083.45,798.791 1085.61,791.958 1093.5,787C 1103.7,781.466 1114.03,781.132 1124.5,786C 1125.79,787.41 1126.95,788.91 1128,790.5C 1131.81,803.102 1135.31,815.769 1138.5,828.5C 1142.17,828.5 1145.83,828.5 1149.5,828.5C 1149.5,829.833 1149.5,831.167 1149.5,832.5C 1146.43,832.183 1143.43,832.516 1140.5,833.5C 1142.04,838.121 1143.37,842.788 1144.5,847.5C 1146.47,847.739 1148.3,847.406 1150,846.5C 1150.5,847 1151,847.5 1151.5,848C 1145.36,852.547 1138.69,853.547 1131.5,851C 1130.67,850.167 1129.83,849.333 1129,848.5C 1127.65,843.448 1126.15,838.448 1124.5,833.5C 1118.53,832.336 1112.53,832.17 1106.5,833C 1104.31,843.733 1098.31,851.4 1088.5,856C 1082.73,857.29 1077.56,856.123 1073,852.5C 1072.52,851.552 1072.35,850.552 1072.5,849.5C 1065.06,852.223 1057.4,853.056 1049.5,852C 1042.77,850.445 1039.11,846.279 1038.5,839.5 Z"/></g>
<g><path style="opacity:1" fill="#8dc0f1" d="M 707.5,787.5 C 708.919,786.549 710.585,786.216 712.5,786.5C 712.827,796.348 712.494,806.014 711.5,815.5C 711.5,806.167 711.5,796.833 711.5,787.5C 710.167,787.5 708.833,787.5 707.5,787.5 Z"/></g>
<g><path style="opacity:1" fill="#5ca8ef" d="M 1034.5,787.5 C 1035.57,786.566 1036.9,786.232 1038.5,786.5C 1038.5,796.5 1038.5,806.5 1038.5,816.5C 1036.17,816.5 1033.83,816.5 1031.5,816.5C 1031.5,817.5 1031.5,818.5 1031.5,819.5C 1033.83,819.5 1036.17,819.5 1038.5,819.5C 1038.5,826.167 1038.5,832.833 1038.5,839.5C 1037.51,833.355 1037.18,827.022 1037.5,820.5C 1035.17,820.5 1032.83,820.5 1030.5,820.5C 1030.5,818.833 1030.5,817.167 1030.5,815.5C 1032.83,815.5 1035.17,815.5 1037.5,815.5C 1037.5,806.167 1037.5,796.833 1037.5,787.5C 1036.5,787.5 1035.5,787.5 1034.5,787.5 Z"/></g>
<g><path style="opacity:1" fill="#2181ec" d="M 796.5,827.5 C 791.637,827.819 786.97,827.486 782.5,826.5C 784.195,818.052 786.362,809.719 789,801.5C 791.813,810.084 794.313,818.751 796.5,827.5 Z"/></g>
<g><path style="opacity:1" fill="#2583ec" d="M 1114.5,801.5 C 1118.34,810.037 1121.01,819.037 1122.5,828.5C 1117.83,828.5 1113.17,828.5 1108.5,828.5C 1110.34,819.475 1112.34,810.475 1114.5,801.5 Z"/></g>
<g><path style="opacity:1" fill="#add0f2" d="M 1248.5,799.5 C 1247.83,811.167 1247.17,822.833 1246.5,834.5C 1246.33,822.162 1246.5,809.829 1247,797.5C 1247.72,798.044 1248.22,798.711 1248.5,799.5 Z"/></g>
<g><path style="opacity:1" fill="#91c2f1" d="M 711.5,815.5 C 709.735,816.461 707.735,816.795 705.5,816.5C 705.5,817.5 705.5,818.5 705.5,819.5C 707.833,819.5 710.167,819.5 712.5,819.5C 712.5,826.833 712.5,834.167 712.5,841.5C 711.509,834.687 711.175,827.687 711.5,820.5C 709.167,820.5 706.833,820.5 704.5,820.5C 704.5,818.833 704.5,817.167 704.5,815.5C 706.833,815.5 709.167,815.5 711.5,815.5 Z"/></g>
<g><path style="opacity:1" fill="#8dc0f1" d="M 746.5,819.5 C 740.355,820.49 734.022,820.823 727.5,820.5C 727.5,827.167 727.5,833.833 727.5,840.5C 726.509,833.687 726.175,826.687 726.5,819.5C 733.167,819.5 739.833,819.5 746.5,819.5 Z"/></g>
<g><path style="opacity:1" fill="#55a5ef" d="M 782.5,826.5 C 786.97,827.486 791.637,827.819 796.5,827.5C 791.652,828.814 786.652,828.814 781.5,827.5C 781.624,826.893 781.957,826.56 782.5,826.5 Z"/></g>
<g><path style="opacity:1" fill="#a8cef2" d="M 764.5,828.5 C 764.5,829.5 764.5,830.5 764.5,831.5C 768.226,831.177 771.893,831.511 775.5,832.5C 775.376,833.107 775.043,833.44 774.5,833.5C 771.038,832.518 767.371,832.185 763.5,832.5C 763.232,830.901 763.566,829.568 764.5,828.5 Z"/></g>
</svg>
