<svg width="28" height="27" viewBox="0 0 28 27" fill="none" xmlns="http://www.w3.org/2000/svg">
<g id="SVG">
<path id="Vector" opacity="0.4" d="M18.1954 12.4962L22.1468 12.1467C23.0335 12.1467 23.7525 12.8727 23.7525 13.7681C23.7525 14.6635 23.0335 15.3895 22.1468 15.3895L18.1954 15.04C17.4997 15.04 16.9357 14.4705 16.9357 13.7681C16.9357 13.0645 17.4997 12.4962 18.1954 12.4962Z" fill="white"/>
<path id="Vector_2" d="M4.92636 12.5604C4.98812 12.4981 5.21884 12.2345 5.43558 12.0157C6.69988 10.6449 10.0011 8.40347 11.728 7.71751C11.9902 7.60808 12.6532 7.37512 13.0086 7.35864C13.3477 7.35864 13.6716 7.43748 13.9804 7.59279C14.3661 7.81046 14.6738 8.15403 14.8439 8.55878C14.9522 8.83882 15.1224 9.68009 15.1224 9.69539C15.2913 10.6143 15.3834 12.1086 15.3834 13.7606C15.3834 15.3325 15.2913 16.7656 15.1527 17.6999C15.1375 17.7163 14.9674 18.76 14.7821 19.1177C14.443 19.7719 13.78 20.1766 13.0704 20.1766H13.0086C12.546 20.1613 11.5742 19.7554 11.5742 19.7413C9.9393 19.0553 6.7162 16.9221 5.42043 15.5043C5.42043 15.5043 5.05454 15.1396 4.89607 14.9125C4.64903 14.5854 4.52551 14.1806 4.52551 13.7759C4.52551 13.3241 4.66418 12.904 4.92636 12.5604Z" fill="white"/>
</g>
</svg>
