<svg width="27" height="26" viewBox="0 0 27 26" fill="none" xmlns="http://www.w3.org/2000/svg">
<g id="SVG">
<path id="Vector" opacity="0.4" d="M17.5244 12.0347L21.2798 11.7026C22.1225 11.7026 22.8058 12.3925 22.8058 13.2435C22.8058 14.0945 22.1225 14.7844 21.2798 14.7844L17.5244 14.4523C16.8633 14.4523 16.3273 13.9111 16.3273 13.2435C16.3273 12.5748 16.8633 12.0347 17.5244 12.0347Z" fill="#3B82F6"/>
<path id="Vector_2" d="M4.91372 12.0957C4.97242 12.0365 5.19169 11.786 5.39767 11.578C6.59925 10.2753 9.73663 8.14503 11.3779 7.4931C11.627 7.3891 12.2572 7.16769 12.5949 7.15204C12.9172 7.15204 13.2251 7.22696 13.5185 7.37457C13.8851 7.58144 14.1775 7.90796 14.3392 8.29263C14.4422 8.55877 14.6038 9.35831 14.6038 9.37285C14.7644 10.2462 14.8519 11.6663 14.8519 13.2363C14.8519 14.7303 14.7644 16.0923 14.6326 16.9802C14.6182 16.9958 14.4566 17.9877 14.2805 18.3276C13.9582 18.9494 13.3281 19.3341 12.6536 19.3341H12.5949C12.1553 19.3195 11.2317 18.9337 11.2317 18.9203C9.67794 18.2684 6.61475 16.241 5.38328 14.8936C5.38328 14.8936 5.03554 14.5469 4.88493 14.3311C4.65015 14.0202 4.53276 13.6355 4.53276 13.2509C4.53276 12.8215 4.66455 12.4223 4.91372 12.0957Z" fill="#3B82F6"/>
</g>
</svg>
