<svg width="18" height="16" viewBox="0 0 18 16" fill="none" xmlns="http://www.w3.org/2000/svg">
<g id="SVG" clip-path="url(#clip0_37_650)">
<path id="Vector" d="M16.1232 4.89182C15.9783 4.26103 15.7894 3.79818 15.5664 3.44727C14.8394 4.1366 13.9194 4.97299 12.9203 5.70725C11.5428 6.71963 10.1757 7.41413 9.06008 7.41413C7.94443 7.41413 6.57733 6.71963 5.19986 5.70725C4.20079 4.97299 3.28075 4.1366 2.55377 3.44727C2.33081 3.79818 2.14187 4.26103 1.997 4.89182C1.99013 4.92174 1.98338 4.95194 1.97675 4.98245C2.63618 5.58959 3.42033 6.27147 4.26121 6.88948C5.66702 7.92268 7.39246 8.90182 9.06008 8.90182C10.7277 8.90182 12.4531 7.92268 13.859 6.88948C14.6998 6.27147 15.484 5.58959 16.1434 4.98244C16.1368 4.95194 16.13 4.92174 16.1232 4.89182Z" fill="#3B82F6" fill-opacity="0.25"/>
<path id="Vector_2" fill-rule="evenodd" clip-rule="evenodd" d="M0.559998 8.21997C0.559998 14.3962 2.06025 15.72 9.06 15.72C16.0597 15.72 17.56 14.3962 17.56 8.21997C17.56 2.04372 16.0597 0.719971 9.06 0.719971C2.06025 0.719971 0.559998 2.04372 0.559998 8.21997ZM9.06 14.47C7.3424 14.47 6.05884 14.3872 5.0862 14.1964C4.12964 14.0089 3.5628 13.7339 3.18683 13.4022C2.81086 13.0705 2.4993 12.5703 2.28671 11.7263C2.07055 10.8681 1.97667 9.7355 1.97667 8.21997C1.97667 6.70444 2.07055 5.57189 2.28671 4.71368C2.4993 3.86965 2.81086 3.3695 3.18683 3.03776C3.5628 2.70602 4.12964 2.43112 5.0862 2.24354C6.05884 2.05281 7.3424 1.96997 9.06 1.96997C10.7776 1.96997 12.0612 2.05281 13.0338 2.24354C13.9904 2.43112 14.5572 2.70602 14.9332 3.03776C15.3091 3.3695 15.6207 3.86965 15.8333 4.71368C16.0495 5.57189 16.1433 6.70444 16.1433 8.21997C16.1433 9.7355 16.0495 10.8681 15.8333 11.7263C15.6207 12.5703 15.3091 13.0705 14.9332 13.4022C14.5572 13.7339 13.9904 14.0089 13.0338 14.1964C12.0612 14.3872 10.7776 14.47 9.06 14.47Z" fill="#3B82F6" fill-opacity="0.25"/>
</g>
<defs>
<clipPath id="clip0_37_650">
<rect width="17" height="15" fill="white" transform="translate(0.559998 0.719971)"/>
</clipPath>
</defs>
</svg>
