<svg width="23" height="24" viewBox="0 0 23 24" fill="none" xmlns="http://www.w3.org/2000/svg">
<g id="SVG">
<path id="Vector" opacity="0.4" d="M7.34064 6.9847C7.34064 4.77199 9.20018 2.97095 11.4857 2.97095H16.0287C18.3087 2.97095 20.1635 4.76748 20.1635 6.97567V17.0109C20.1635 19.2246 18.3049 21.0265 16.0194 21.0265H11.4764C9.19645 21.0265 7.34064 19.2291 7.34064 17.02V16.1714V6.9847Z" fill="#3B82F6"/>
<path id="Vector_2" d="M15.2321 11.5056L12.5527 8.87941C12.2758 8.60858 11.8302 8.60858 11.5541 8.88122C11.2791 9.15386 11.28 9.59351 11.556 9.86434L13.0231 11.3025H3.71686C3.32715 11.3025 3.0108 11.6139 3.0108 11.9985C3.0108 12.3822 3.32715 12.6927 3.71686 12.6927H13.0231L11.556 14.1318C11.28 14.4026 11.2791 14.8423 11.5541 15.1149C11.6926 15.2512 11.8733 15.3198 12.0548 15.3198C12.2345 15.3198 12.4152 15.2512 12.5527 15.1167L15.2321 12.4905C15.365 12.3596 15.4402 12.1827 15.4402 11.9985C15.4402 11.8134 15.365 11.6365 15.2321 11.5056Z" fill="#3B82F6"/>
</g>
</svg>
