<svg width="18" height="18" viewBox="0 0 18 18" fill="none" xmlns="http://www.w3.org/2000/svg">
<g id="SVG">
<path id="Vector" d="M9.61535 11.02C10.0584 11.3321 10.5229 11.5945 11.0017 11.7931C11.299 11.9009 11.7655 11.5956 12.1085 11.3711C12.1942 11.315 12.2723 11.264 12.338 11.2257L12.3596 11.2136C12.6827 11.0321 13.0415 10.8306 13.5028 10.9278C13.9173 11.0129 15.3394 12.1336 15.7324 12.5308C15.9897 12.7861 16.1326 13.0557 16.154 13.3323C16.1969 14.3608 14.8177 15.5169 14.489 15.7155C13.7887 16.2262 12.8525 16.2191 11.7235 15.7084C10.5158 15.219 9.07225 14.1905 7.67877 12.9422C7.17995 12.4953 6.22202 11.5544 5.94941 11.2402C4.54164 9.71518 3.3554 8.07671 2.798 6.75033C2.5336 6.18999 2.40497 5.67221 2.40497 5.21117C2.40497 4.75722 2.5336 4.35292 2.78371 4.00537C2.93378 3.74293 4.14146 2.31015 5.20622 2.34562C5.47063 2.37399 5.74218 2.50875 6.00658 2.7641C6.40676 3.15421 7.55727 4.56571 7.64303 4.98419C7.74086 5.43506 7.538 5.79096 7.35523 6.1116L7.34289 6.13325C7.3017 6.20442 7.24585 6.28885 7.1848 6.38114C6.95988 6.72116 6.66427 7.16802 6.77049 7.45254C7.03561 8.10509 7.41435 8.74345 7.87099 9.33217C8.37776 9.93808 9.1723 10.7079 9.61535 11.02Z" stroke="#3B82F6" stroke-opacity="0.25" stroke-width="1.5"/>
</g>
</svg>
