<svg width="41" height="40" viewBox="0 0 41 40" fill="none" xmlns="http://www.w3.org/2000/svg">
<g id="SVG">
<path id="Vector" d="M13.9609 6.54199C17.3785 6.92151 20.0785 9.61787 20.4617 13.0354" stroke="#51B6FF" stroke-width="1.38512" stroke-linecap="round" stroke-linejoin="round"/>
<path id="Vector_2" d="M13.9609 9.81372C15.5963 10.1314 16.8743 11.4103 17.1929 13.0457" stroke="#51B6FF" stroke-width="1.38512" stroke-linecap="round" stroke-linejoin="round"/>
<path id="Vector_3" fill-rule="evenodd" clip-rule="evenodd" d="M10.8938 15.7506C14.5773 19.4331 15.4129 15.1728 17.7582 17.5165C20.0193 19.777 21.3198 20.2299 18.4541 23.0939C18.0953 23.3822 15.8154 26.8517 7.80314 18.8415C-0.210094 10.8303 3.25728 8.54805 3.54574 8.18931C6.41738 5.31741 6.86344 6.62453 9.12447 8.88499C11.4688 11.2297 7.21038 12.0681 10.8938 15.7506Z" stroke="#51B6FF" stroke-width="1.38512" stroke-linecap="round" stroke-linejoin="round"/>
<path id="Vector_4" opacity="0.15" d="M29.5405 30.9811C35.6673 26.4225 36.9386 17.7602 32.3799 11.6334C27.8212 5.50653 19.1589 4.23527 13.0321 8.79393C6.90529 13.3526 5.63403 22.0149 10.1927 28.1417C14.7513 34.2685 23.4136 35.5398 29.5405 30.9811Z" fill="#51B6FF"/>
</g>
</svg>
