<svg width="16" height="14" viewBox="0 0 16 14" fill="none" xmlns="http://www.w3.org/2000/svg">
<g id="SVG">
<path id="Vector" d="M1.6192 7.10033C1.6192 8.47489 1.69341 9.55014 1.88094 10.394C2.06738 11.2329 2.36006 11.8164 2.77901 12.2353C3.19795 12.6543 3.78149 12.947 4.6204 13.1334C5.46418 13.3209 6.53944 13.3952 7.91399 13.3952C9.28855 13.3952 10.3638 13.3209 11.2076 13.1334C12.0465 12.947 12.63 12.6543 13.049 12.2353C13.4679 11.8164 13.7606 11.2329 13.9471 10.394C14.1346 9.55014 14.2088 8.47489 14.2088 7.10033C14.2088 5.72578 14.1346 4.65052 13.9471 3.80674C13.7606 2.96783 13.4679 2.38429 13.049 1.96535C12.63 1.5464 12.0465 1.25372 11.2076 1.06728C10.3638 0.879754 9.28855 0.805542 7.91399 0.805542C6.53944 0.805542 5.46418 0.879754 4.6204 1.06728C3.78149 1.25372 3.19795 1.5464 2.77901 1.96535C2.36006 2.38429 2.06738 2.96783 1.88094 3.80674C1.69341 4.65052 1.6192 5.72578 1.6192 7.10033Z" stroke="#607496" stroke-width="0.858919" stroke-linecap="round" stroke-linejoin="round"/>
<path id="Vector_2" d="M7.91399 3.73822C7.91399 3.73822 7.91399 5.97964 7.91399 6.53999C7.91399 7.10035 7.91399 7.10035 8.47435 7.10035C9.03471 7.10035 11.2761 7.10035 11.2761 7.10035" stroke="#607496" stroke-width="0.858919" stroke-linecap="round" stroke-linejoin="round"/>
</g>
</svg>
