<svg width="23" height="22" viewBox="0 0 23 22" fill="none" xmlns="http://www.w3.org/2000/svg">
<g id="SVG">
<path id="Vector" opacity="0.4" d="M19.8827 8.78099H18.7966V7.71911C18.7966 7.26576 18.433 6.89612 17.985 6.89612C17.5379 6.89612 17.1734 7.26576 17.1734 7.71911V8.78099H16.0892C15.6412 8.78099 15.2776 9.15063 15.2776 9.60398C15.2776 10.0573 15.6412 10.427 16.0892 10.427H17.1734V11.4898C17.1734 11.9431 17.5379 12.3128 17.985 12.3128C18.433 12.3128 18.7966 11.9431 18.7966 11.4898V10.427H19.8827C20.3297 10.427 20.6943 10.0573 20.6943 9.60398C20.6943 9.15063 20.3297 8.78099 19.8827 8.78099Z" fill="white"/>
<path id="Vector_2" d="M9.40975 13.681C5.75731 13.681 2.63892 14.265 2.63892 16.598C2.63892 18.9301 5.73834 19.5351 9.40975 19.5351C13.0613 19.5351 16.1806 18.9511 16.1806 16.6181C16.1806 14.2851 13.0812 13.681 9.40975 13.681Z" fill="white"/>
<path id="Vector_3" opacity="0.4" d="M9.40984 11.459C11.8966 11.459 13.89 9.43996 13.89 6.92114C13.89 4.40232 11.8966 2.38232 9.40984 2.38232C6.92308 2.38232 4.92969 4.40232 4.92969 6.92114C4.92969 9.43996 6.92308 11.459 9.40984 11.459Z" fill="white"/>
</g>
</svg>
