<svg width="99" height="129" viewBox="0 0 99 129" fill="none" xmlns="http://www.w3.org/2000/svg">
<g id="SVG" clip-path="url(#clip0_37_56)">
<path id="Vector" d="M47.529 72.7354C50.5557 71.6329 53.3873 70.0549 55.9172 68.061C58.418 66.0579 60.6214 63.7096 62.4613 61.0864C64.3091 58.5597 65.8461 55.8197 67.0391 52.9257C68.2364 50.0386 68.9208 46.9647 69.0614 43.8423C69.1206 42.2624 68.9539 40.6823 68.5664 39.1495C68.1842 37.5558 67.4595 36.0643 66.4428 34.7789C65.2806 33.3631 63.6784 32.3767 61.8909 31.9766C60.0532 31.6118 58.1498 31.7712 56.3983 32.4365C55.5759 32.7319 54.7792 33.094 54.0159 33.5193C53.3228 33.9419 52.6521 34.4002 52.0067 34.8924C51.3464 35.3833 50.7154 35.9122 50.1168 36.4767L49.2047 37.3268L48.4174 38.176C46.4117 40.3826 44.6355 42.7873 43.1161 45.3531C41.5832 47.8361 40.4117 50.5248 39.6369 53.3382C38.9021 56.0043 38.562 58.7636 38.6276 61.5283L38.6352 62.5269L38.7181 63.5108C38.7949 64.1638 38.8506 64.8288 38.926 65.4547C39.1641 66.713 39.3388 68.0071 39.6613 69.2176C39.8611 69.9404 40.0715 70.6571 40.297 71.3514C39.6183 71.4567 38.9336 71.5514 38.2521 71.6025C35.5578 71.8377 32.8439 71.7042 30.1857 71.2059C27.6472 70.7067 25.2021 69.8151 22.9382 68.5631C18.6815 66.0403 15.0592 62.5759 12.3492 58.4358C9.79381 54.5665 7.78986 50.3601 6.39515 45.9379C5.09231 41.9013 4.11834 37.7659 3.48278 33.5722C2.87826 29.925 2.52126 26.2411 2.41425 22.5457C2.20973 17.104 2.8983 11.6657 4.4526 6.44679C5.66315 2.72557 6.79982 0.745505 6.57447 0.691872C6.34913 0.638238 6.1891 1.11877 5.63313 2.03216C4.85997 3.37851 4.18579 4.77932 3.61593 6.22352C1.65449 11.494 0.648942 17.0721 0.646538 22.6957C0.582732 30.8741 1.70309 39.0187 3.97277 46.8761C5.34019 51.5314 7.36593 55.9674 9.98854 60.0495C12.859 64.5675 16.7315 68.3638 21.3056 71.144C23.8087 72.5646 26.5167 73.5892 29.3333 74.1813C32.2991 74.7897 35.3346 74.9853 38.3539 74.7626C39.3963 74.7008 40.4342 74.5788 41.4626 74.3974C42.5487 77.0395 43.865 79.5811 45.3961 81.9928C49.5382 88.373 54.6048 94.1027 60.4301 98.9944C64.6151 102.568 69.0796 105.8 73.7808 108.66C78.9719 111.87 84.4951 114.51 90.2538 116.532C90.9657 116.756 91.5559 116.938 92.0846 117.085L90.3096 117.517C88.4185 118.016 86.6129 118.591 84.9109 119.178C81.9044 120.241 78.9811 121.526 76.1654 123.024C71.3732 125.609 68.8039 127.814 69.0339 128.171C69.2639 128.529 72.2657 127.137 77.1077 125.207C79.5452 124.246 82.4645 123.152 85.7533 122.17C87.3948 121.673 89.1234 121.183 90.9314 120.76C91.8377 120.539 92.7605 120.324 93.7012 120.14C94.1785 120.024 94.5938 119.97 95.2849 119.788C96.1863 119.554 96.9869 119.033 97.5653 118.303C97.8671 117.906 98.0841 117.452 98.2028 116.967C98.2854 116.588 98.3184 116.199 98.3012 115.811C98.2666 115.238 98.1738 114.67 98.0245 114.115C97.7833 113.221 97.5481 112.337 97.3248 111.474C96.8407 109.756 96.3652 108.103 95.9151 106.519C94.9514 103.387 93.9861 100.645 93.13 98.3437C91.3863 93.7582 89.9203 90.9936 89.4623 91.169C89.0044 91.3445 89.5609 94.3727 90.7022 99.1736C91.3155 101.613 91.9858 104.423 92.7553 107.582L93.9801 112.53C94.1928 113.399 94.4055 114.268 94.6136 115.153L94.6554 115.227C93.9908 114.864 93.0499 114.408 91.6826 113.788C86.3335 111.319 81.1587 108.489 76.1942 105.317C71.7264 102.459 67.4737 99.2775 63.4701 95.7986C57.9752 91.1225 53.1808 85.6811 49.2339 79.6412C47.9482 77.6274 46.827 75.5132 45.8812 73.3191C46.4369 73.1441 46.9926 72.9692 47.5409 72.7565L47.529 72.7354ZM43.9862 67.8998C43.6601 66.8307 43.5267 65.7082 43.2956 64.5853C43.2124 64.0195 43.1833 63.4509 43.1107 62.8791L43.0228 62.0095L43.0221 61.1462C42.9528 58.7661 43.2319 56.3886 43.8504 54.0892C44.5065 51.6603 45.5047 49.337 46.815 47.1891C48.165 44.8794 49.7338 42.7048 51.4997 40.6951L52.1783 39.9492L52.8986 39.2772C53.3665 38.8172 53.8632 38.3874 54.3856 37.9904C54.8858 37.6017 55.4076 37.2415 55.9484 36.9115C56.4708 36.6141 57.0172 36.361 57.5819 36.1548C58.5155 35.7022 59.5732 35.5735 60.5881 35.7891C61.6029 36.0046 62.517 36.5521 63.1861 37.3451C64.5769 39.295 65.2488 41.6667 65.0873 44.0563C64.9873 46.7312 64.424 49.3685 63.4226 51.8509C62.38 54.4673 61.0227 56.9469 59.3806 59.2351C57.7951 61.5697 55.886 63.6671 53.7105 65.4645C51.5022 67.2219 49.0304 68.6198 46.3864 69.6068C45.8169 69.8314 45.2296 70.0243 44.6633 70.2053C44.402 69.4477 44.1558 68.6676 43.9234 67.8379" fill="#CACFD8"/>
</g>
<defs>
<clipPath id="clip0_37_56">
<rect width="98" height="129" fill="white" transform="translate(0.5)"/>
</clipPath>
</defs>
</svg>
