<svg width="14" height="16" viewBox="0 0 14 16" fill="none" xmlns="http://www.w3.org/2000/svg">
<g id="SVG" clip-path="url(#clip0_37_273)">
<path id="Vector" d="M1.14878 6.91841C1.44428 6.91841 1.70285 6.8714 1.92447 6.77737C2.15282 6.68335 2.34422 6.55575 2.49869 6.39456C2.65316 6.23338 2.77069 6.04533 2.85128 5.83042C2.93187 5.62222 2.97888 5.4006 2.99231 5.16554H1.98492C1.6424 5.16554 1.36033 5.1286 1.1387 5.05472C0.917072 4.98085 0.742456 4.87339 0.614853 4.73236C0.487249 4.59132 0.396583 4.42342 0.342855 4.22866C0.295844 4.02718 0.272338 3.80219 0.272338 3.5537C0.272338 3.2985 0.309276 3.05672 0.383151 2.82838C0.457027 2.60003 0.564483 2.39855 0.705518 2.22394C0.846554 2.04932 1.02117 1.91165 1.22937 1.81091C1.44428 1.70345 1.68941 1.64972 1.96477 1.64972C2.1864 1.64972 2.39795 1.68666 2.59943 1.76054C2.80091 1.83441 2.97888 1.95194 3.13335 2.11313C3.28782 2.26759 3.40871 2.47243 3.49601 2.72764C3.59004 2.97613 3.63705 3.27835 3.63705 3.63429V4.47043H4.60415C4.68473 4.47043 4.73846 4.50066 4.76533 4.5611C4.7989 4.61483 4.8157 4.69878 4.8157 4.81295C4.8157 4.93384 4.7989 5.0245 4.76533 5.08495C4.73846 5.13867 4.68473 5.16554 4.60415 5.16554H3.6169C3.60347 5.49462 3.53631 5.80691 3.41542 6.10242C3.30125 6.39792 3.14007 6.65649 2.93187 6.87811C2.72368 7.09974 2.47518 7.27436 2.1864 7.40196C1.89761 7.53628 1.57188 7.60344 1.20922 7.60344H0.141376L0.0809326 6.91841H1.14878ZM0.896924 3.51341C0.896924 3.68131 0.913714 3.8257 0.947294 3.94659C0.987589 4.06748 1.0514 4.16821 1.1387 4.24881C1.23273 4.32268 1.35697 4.37977 1.51144 4.42006C1.66591 4.45364 1.86067 4.47043 2.09573 4.47043H3.00239V3.71489C3.00239 3.2179 2.90501 2.86196 2.71024 2.64705C2.51548 2.43213 2.24684 2.32468 1.90433 2.32468C1.58196 2.32468 1.33347 2.43213 1.15885 2.64705C0.984232 2.86196 0.896924 3.15074 0.896924 3.51341ZM6.26895 4.47043C6.35626 4.47043 6.41334 4.50066 6.44021 4.5611C6.47378 4.61483 6.49058 4.69878 6.49058 4.81295C6.49058 4.93384 6.47378 5.0245 6.44021 5.08495C6.41334 5.13867 6.35626 5.16554 6.26895 5.16554H4.60675C4.51944 5.16554 4.46235 5.13867 4.43549 5.08495C4.40191 5.03122 4.38512 4.94727 4.38512 4.8331C4.38512 4.71221 4.40191 4.62154 4.43549 4.5611C4.46235 4.50066 4.51944 4.47043 4.60675 4.47043H6.26895ZM7.93155 4.47043C8.01886 4.47043 8.07594 4.50066 8.10281 4.5611C8.13638 4.61483 8.15318 4.69878 8.15318 4.81295C8.15318 4.93384 8.13638 5.0245 8.10281 5.08495C8.07594 5.13867 8.01886 5.16554 7.93155 5.16554H6.26895C6.18164 5.16554 6.12495 5.13867 6.09809 5.08495C6.06451 5.03122 6.04772 4.94727 6.04772 4.8331C6.04772 4.71221 6.06451 4.62154 6.09809 4.5611C6.12495 4.50066 6.18164 4.47043 6.26895 4.47043H7.93155ZM9.59414 4.47043C9.68145 4.47043 9.73854 4.50066 9.76541 4.5611C9.79899 4.61483 9.81577 4.69878 9.81577 4.81295C9.81577 4.93384 9.79899 5.0245 9.76541 5.08495C9.73854 5.13867 9.68145 5.16554 9.59414 5.16554H7.93155C7.84425 5.16554 7.78755 5.13867 7.76069 5.08495C7.72711 5.03122 7.71032 4.94727 7.71032 4.8331C7.71032 4.71221 7.72711 4.62154 7.76069 4.5611C7.78755 4.50066 7.84425 4.47043 7.93155 4.47043H9.59414ZM11.2567 4.47043C11.3441 4.47043 11.4011 4.50066 11.428 4.5611C11.4616 4.61483 11.4784 4.69878 11.4784 4.81295C11.4784 4.93384 11.4616 5.0245 11.428 5.08495C11.4011 5.13867 11.3441 5.16554 11.2567 5.16554H9.59414C9.50683 5.16554 9.45014 5.13867 9.42327 5.08495C9.3897 5.03122 9.3729 4.94727 9.3729 4.8331C9.3729 4.71221 9.3897 4.62154 9.42327 4.5611C9.45014 4.50066 9.50683 4.47043 9.59414 4.47043H11.2567ZM12.1638 4.47043C12.4257 4.47043 12.6339 4.39992 12.7884 4.25888C12.9496 4.11785 13.0302 3.92308 13.0302 3.67459V2.28438H13.685V3.67459C13.685 4.15142 13.5506 4.5208 13.282 4.78273C13.0201 5.03793 12.6608 5.16554 12.2041 5.16554H11.2567C11.1694 5.16554 11.1127 5.13867 11.0859 5.08495C11.0523 5.03122 11.0355 4.94727 11.0355 4.8331C11.0355 4.71221 11.0523 4.62154 11.0859 4.5611C11.1127 4.50066 11.1694 4.47043 11.2567 4.47043H12.1638ZM13.7857 0.994914H12.9798V0.279663H13.7857V0.994914ZM12.5063 0.994914H11.7004V0.279663H12.5063V0.994914ZM5.64177 12.9641C5.64177 13.3267 5.58468 13.6659 5.47051 13.9815C5.35634 14.3039 5.1918 14.5826 4.97689 14.8177C4.76198 15.0595 4.50005 15.2509 4.19112 15.3919C3.8889 15.5329 3.54638 15.6035 3.16357 15.6035H2.56921C1.81702 15.6035 1.23273 15.3718 0.816332 14.9084C0.399941 14.445 0.191746 13.8103 0.191746 13.0044V11.2414H0.83648V12.9842C0.83648 13.273 0.87006 13.5349 0.93722 13.77C1.0111 14.0051 1.12191 14.2065 1.26967 14.3744C1.42413 14.549 1.61554 14.6834 1.84388 14.7774C2.07223 14.8714 2.34758 14.9184 2.66995 14.9184H3.1132C3.42885 14.9184 3.70421 14.8647 3.93927 14.7572C4.17433 14.6565 4.36909 14.5188 4.52356 14.3442C4.68474 14.1696 4.80227 13.9648 4.87615 13.7297C4.95674 13.4946 4.99703 13.2495 4.99703 12.9943V10.2844H5.64177V12.9641ZM3.21394 10.0628H2.36773V9.32736H3.21394V10.0628ZM8.24526 13.1656C8.07064 13.1656 7.90274 13.1421 7.74156 13.095C7.58038 13.0413 7.43598 12.954 7.30838 12.8331C7.18749 12.7122 7.09011 12.5544 7.01624 12.3596C6.94236 12.1582 6.90542 11.9097 6.90542 11.6142V6.91968H7.56023V11.4933C7.56023 11.7754 7.62067 12.0104 7.74156 12.1985C7.86916 12.3798 8.07399 12.4705 8.35606 12.4705H8.52733C8.67508 12.4705 8.74895 12.5846 8.74895 12.813C8.74895 13.048 8.67508 13.1656 8.52733 13.1656H8.24526ZM8.69324 12.4705C8.95516 12.4705 9.15327 12.4067 9.28759 12.279C9.42192 12.1514 9.48908 11.9802 9.48908 11.7653V11.3825C9.48908 10.7982 9.63683 10.3415 9.93233 10.0124C10.2346 9.6833 10.6509 9.51876 11.1815 9.51876C11.4569 9.51876 11.6986 9.56241 11.9068 9.64972C12.115 9.73703 12.2863 9.86128 12.4206 10.0225C12.5616 10.1837 12.6657 10.3751 12.7329 10.5967C12.8001 10.8183 12.8336 11.0635 12.8336 11.3321C12.8336 11.9097 12.6825 12.3596 12.3803 12.682C12.0781 13.0044 11.6651 13.1656 11.1412 13.1656C10.8726 13.1656 10.614 13.1152 10.3655 13.0144C10.117 12.907 9.92226 12.7189 9.78123 12.4503C9.72078 12.6048 9.6469 12.729 9.5596 12.823C9.47229 12.9171 9.38161 12.9909 9.28759 13.0447C9.19357 13.0917 9.09284 13.1253 8.98538 13.1454C8.88463 13.1588 8.78726 13.1656 8.69324 13.1656H8.53205C8.44475 13.1656 8.38766 13.1387 8.3608 13.085C8.32722 13.0312 8.31042 12.9473 8.31042 12.8331C8.31042 12.7122 8.32722 12.6216 8.3608 12.5611C8.38766 12.5007 8.44475 12.4705 8.53205 12.4705H8.69324ZM12.1889 11.3925C12.1889 11.0433 12.1117 10.7612 11.9572 10.5463C11.8027 10.3247 11.5375 10.2139 11.1614 10.2139C10.4629 10.2139 10.1137 10.6202 10.1137 11.4328C10.1137 11.7754 10.2077 12.0339 10.3957 12.2085C10.5905 12.3831 10.839 12.4705 11.1412 12.4705C11.4837 12.4705 11.7423 12.3764 11.9169 12.1884C12.0982 12.0003 12.1889 11.7351 12.1889 11.3925Z" fill="#98A3B8" fill-opacity="0.67"/>
</g>
<defs>
<clipPath id="clip0_37_273">
<rect width="14" height="16" fill="white"/>
</clipPath>
</defs>
</svg>
